<mxfile host="app.diagrams.net" modified="2022-05-02T05:25:28.562Z" agent="5.0 (Windows NT 10.0; Win64; x64) AppleWebKit/537.36 (KHTML, like Gecko) Chrome/101.0.4951.41 Safari/537.36 Edg/101.0.1210.32" etag="XwkOQMyUKAprdY7Iit8n" version="17.5.0" type="github">
  <diagram id="IYbdeJoA8hzu78FnXWDd" name="Page-1">
    <mxGraphModel dx="1038" dy="579" grid="1" gridSize="10" guides="1" tooltips="1" connect="1" arrows="1" fold="1" page="1" pageScale="1" pageWidth="850" pageHeight="1100" math="0" shadow="0">
      <root>
        <mxCell id="0" />
        <mxCell id="1" parent="0" />
        <mxCell id="No7Bt8iQKIPhCdxpCU7Z-3" value="" style="edgeStyle=orthogonalEdgeStyle;rounded=0;orthogonalLoop=1;jettySize=auto;html=1;" edge="1" parent="1" source="No7Bt8iQKIPhCdxpCU7Z-1" target="No7Bt8iQKIPhCdxpCU7Z-2">
          <mxGeometry relative="1" as="geometry" />
        </mxCell>
        <mxCell id="No7Bt8iQKIPhCdxpCU7Z-1" value="start" style="rounded=1;whiteSpace=wrap;html=1;" vertex="1" parent="1">
          <mxGeometry x="80" y="10" width="90" height="30" as="geometry" />
        </mxCell>
        <mxCell id="No7Bt8iQKIPhCdxpCU7Z-5" value="yes" style="edgeStyle=orthogonalEdgeStyle;rounded=0;orthogonalLoop=1;jettySize=auto;html=1;" edge="1" parent="1" source="No7Bt8iQKIPhCdxpCU7Z-2" target="No7Bt8iQKIPhCdxpCU7Z-4">
          <mxGeometry relative="1" as="geometry" />
        </mxCell>
        <mxCell id="No7Bt8iQKIPhCdxpCU7Z-2" value="IF waiting for queue is false" style="rhombus;whiteSpace=wrap;html=1;" vertex="1" parent="1">
          <mxGeometry x="85" y="60" width="80" height="80" as="geometry" />
        </mxCell>
        <mxCell id="No7Bt8iQKIPhCdxpCU7Z-7" value="" style="edgeStyle=orthogonalEdgeStyle;rounded=0;orthogonalLoop=1;jettySize=auto;html=1;fontSize=9;" edge="1" parent="1" source="No7Bt8iQKIPhCdxpCU7Z-4" target="No7Bt8iQKIPhCdxpCU7Z-6">
          <mxGeometry relative="1" as="geometry" />
        </mxCell>
        <mxCell id="No7Bt8iQKIPhCdxpCU7Z-4" value="set the waiting for queue is true&amp;nbsp;" style="whiteSpace=wrap;html=1;" vertex="1" parent="1">
          <mxGeometry x="65" y="170" width="120" height="60" as="geometry" />
        </mxCell>
        <mxCell id="No7Bt8iQKIPhCdxpCU7Z-9" value="" style="edgeStyle=orthogonalEdgeStyle;rounded=0;orthogonalLoop=1;jettySize=auto;html=1;fontSize=9;" edge="1" parent="1" source="No7Bt8iQKIPhCdxpCU7Z-6" target="No7Bt8iQKIPhCdxpCU7Z-8">
          <mxGeometry relative="1" as="geometry" />
        </mxCell>
        <mxCell id="No7Bt8iQKIPhCdxpCU7Z-6" value="&lt;font style=&quot;font-size: 9px&quot;&gt;define preAnimDurationTimefn&lt;/font&gt;" style="rounded=1;whiteSpace=wrap;html=1;fillColor=#f8cecc;gradientColor=#ea6b66;strokeColor=#b85450;" vertex="1" parent="1">
          <mxGeometry x="65" y="270" width="120" height="60" as="geometry" />
        </mxCell>
        <mxCell id="No7Bt8iQKIPhCdxpCU7Z-13" value="" style="edgeStyle=orthogonalEdgeStyle;rounded=0;orthogonalLoop=1;jettySize=auto;html=1;fontSize=12;" edge="1" parent="1" source="No7Bt8iQKIPhCdxpCU7Z-8" target="No7Bt8iQKIPhCdxpCU7Z-12">
          <mxGeometry relative="1" as="geometry" />
        </mxCell>
        <mxCell id="No7Bt8iQKIPhCdxpCU7Z-8" value="&lt;span style=&quot;font-size: 12px&quot;&gt;TIMEOUT 2.5 sec end&lt;/span&gt;" style="rhombus;whiteSpace=wrap;html=1;fontSize=9;" vertex="1" parent="1">
          <mxGeometry x="85" y="360" width="80" height="80" as="geometry" />
        </mxCell>
        <mxCell id="No7Bt8iQKIPhCdxpCU7Z-15" value="" style="edgeStyle=orthogonalEdgeStyle;rounded=0;orthogonalLoop=1;jettySize=auto;html=1;fontSize=12;" edge="1" parent="1" source="No7Bt8iQKIPhCdxpCU7Z-12" target="No7Bt8iQKIPhCdxpCU7Z-14">
          <mxGeometry relative="1" as="geometry">
            <Array as="points">
              <mxPoint x="200" y="500" />
              <mxPoint x="200" y="40" />
            </Array>
          </mxGeometry>
        </mxCell>
        <mxCell id="No7Bt8iQKIPhCdxpCU7Z-12" value="get the pop grp leader and divide the patience value/2" style="rounded=0;whiteSpace=wrap;html=1;fontSize=12;" vertex="1" parent="1">
          <mxGeometry x="65" y="470" width="125" height="60" as="geometry" />
        </mxCell>
        <mxCell id="No7Bt8iQKIPhCdxpCU7Z-17" value="" style="edgeStyle=orthogonalEdgeStyle;rounded=0;orthogonalLoop=1;jettySize=auto;html=1;fontSize=12;" edge="1" parent="1" source="No7Bt8iQKIPhCdxpCU7Z-14" target="No7Bt8iQKIPhCdxpCU7Z-16">
          <mxGeometry relative="1" as="geometry" />
        </mxCell>
        <mxCell id="No7Bt8iQKIPhCdxpCU7Z-14" value="construct the animation req for q preservice" style="rounded=0;whiteSpace=wrap;html=1;fontSize=12;" vertex="1" parent="1">
          <mxGeometry x="220" y="70" width="125" height="60" as="geometry" />
        </mxCell>
        <mxCell id="No7Bt8iQKIPhCdxpCU7Z-19" value="" style="edgeStyle=orthogonalEdgeStyle;rounded=0;orthogonalLoop=1;jettySize=auto;html=1;fontSize=12;" edge="1" parent="1" source="No7Bt8iQKIPhCdxpCU7Z-16" target="No7Bt8iQKIPhCdxpCU7Z-18">
          <mxGeometry relative="1" as="geometry" />
        </mxCell>
        <mxCell id="No7Bt8iQKIPhCdxpCU7Z-16" value="call&amp;nbsp;setAnimation and slab time&amp;nbsp;" style="rounded=1;whiteSpace=wrap;html=1;fillColor=#f8cecc;gradientColor=#ea6b66;strokeColor=#b85450;" vertex="1" parent="1">
          <mxGeometry x="222.5" y="160" width="120" height="60" as="geometry" />
        </mxCell>
        <mxCell id="No7Bt8iQKIPhCdxpCU7Z-21" value="" style="edgeStyle=orthogonalEdgeStyle;rounded=0;orthogonalLoop=1;jettySize=auto;html=1;fontSize=12;" edge="1" parent="1" source="No7Bt8iQKIPhCdxpCU7Z-18" target="No7Bt8iQKIPhCdxpCU7Z-20">
          <mxGeometry relative="1" as="geometry" />
        </mxCell>
        <mxCell id="No7Bt8iQKIPhCdxpCU7Z-18" value="IF anim interaction is 0" style="rhombus;whiteSpace=wrap;html=1;fontSize=12;" vertex="1" parent="1">
          <mxGeometry x="242.5" y="250" width="80" height="80" as="geometry" />
        </mxCell>
        <mxCell id="No7Bt8iQKIPhCdxpCU7Z-23" value="" style="edgeStyle=orthogonalEdgeStyle;rounded=0;orthogonalLoop=1;jettySize=auto;html=1;fontSize=12;" edge="1" parent="1" source="No7Bt8iQKIPhCdxpCU7Z-20" target="No7Bt8iQKIPhCdxpCU7Z-22">
          <mxGeometry relative="1" as="geometry" />
        </mxCell>
        <mxCell id="No7Bt8iQKIPhCdxpCU7Z-20" value="set aim interaction as 1" style="rounded=0;whiteSpace=wrap;html=1;fontSize=12;" vertex="1" parent="1">
          <mxGeometry x="222.5" y="360" width="120" height="60" as="geometry" />
        </mxCell>
        <mxCell id="No7Bt8iQKIPhCdxpCU7Z-25" style="edgeStyle=orthogonalEdgeStyle;rounded=0;orthogonalLoop=1;jettySize=auto;html=1;entryX=0.5;entryY=0;entryDx=0;entryDy=0;fontSize=12;" edge="1" parent="1" source="No7Bt8iQKIPhCdxpCU7Z-22" target="No7Bt8iQKIPhCdxpCU7Z-24">
          <mxGeometry relative="1" as="geometry" />
        </mxCell>
        <mxCell id="No7Bt8iQKIPhCdxpCU7Z-22" value="&lt;font style=&quot;font-size: 9px&quot;&gt;call preAnimDurationTimefn&lt;br&gt;with next interaction and trigger&lt;br&gt;&lt;/font&gt;" style="rounded=1;whiteSpace=wrap;html=1;fillColor=#f8cecc;gradientColor=#ea6b66;strokeColor=#b85450;" vertex="1" parent="1">
          <mxGeometry x="222.5" y="450" width="120" height="60" as="geometry" />
        </mxCell>
        <mxCell id="No7Bt8iQKIPhCdxpCU7Z-28" value="" style="edgeStyle=orthogonalEdgeStyle;rounded=0;orthogonalLoop=1;jettySize=auto;html=1;fontSize=12;" edge="1" parent="1" source="No7Bt8iQKIPhCdxpCU7Z-24" target="No7Bt8iQKIPhCdxpCU7Z-27">
          <mxGeometry relative="1" as="geometry" />
        </mxCell>
        <mxCell id="No7Bt8iQKIPhCdxpCU7Z-24" value="&lt;font style=&quot;font-size: 9px&quot;&gt;call preAnimDurationTimefn&lt;br&gt;with current interaction and trigger&lt;br&gt;&lt;/font&gt;" style="rounded=1;whiteSpace=wrap;html=1;fillColor=#f8cecc;gradientColor=#ea6b66;strokeColor=#b85450;" vertex="1" parent="1">
          <mxGeometry x="410" y="30" width="120" height="60" as="geometry" />
        </mxCell>
        <mxCell id="No7Bt8iQKIPhCdxpCU7Z-33" value="" style="edgeStyle=orthogonalEdgeStyle;rounded=0;orthogonalLoop=1;jettySize=auto;html=1;fontSize=12;" edge="1" parent="1" source="No7Bt8iQKIPhCdxpCU7Z-27" target="No7Bt8iQKIPhCdxpCU7Z-31">
          <mxGeometry relative="1" as="geometry" />
        </mxCell>
        <mxCell id="No7Bt8iQKIPhCdxpCU7Z-27" value="&lt;font style=&quot;font-size: 9px&quot;&gt;TIMEOUT&amp;nbsp;preService&lt;br&gt;PatienceVal END&lt;/font&gt;" style="rhombus;whiteSpace=wrap;html=1;fontSize=12;" vertex="1" parent="1">
          <mxGeometry x="415" y="120" width="110" height="100" as="geometry" />
        </mxCell>
        <mxCell id="No7Bt8iQKIPhCdxpCU7Z-37" value="" style="edgeStyle=orthogonalEdgeStyle;rounded=0;orthogonalLoop=1;jettySize=auto;html=1;fontSize=12;" edge="1" parent="1" source="No7Bt8iQKIPhCdxpCU7Z-31" target="No7Bt8iQKIPhCdxpCU7Z-34">
          <mxGeometry relative="1" as="geometry" />
        </mxCell>
        <mxCell id="No7Bt8iQKIPhCdxpCU7Z-31" value="&lt;div&gt;&lt;font size=&quot;1&quot;&gt;call&amp;nbsp;&lt;/font&gt;&lt;/div&gt;&lt;font size=&quot;1&quot;&gt;reSetTarget&lt;/font&gt;&lt;div&gt;&lt;span style=&quot;color: rgba(0 , 0 , 0 , 0) ; font-family: monospace ; font-size: 0px&quot;&gt;%3CmxGraphModel%3E%3Croot%3E%3CmxCell%20id%3D%220%22%2F%3E%3CmxCell%20id%3D%221%22%20parent%3D%220%22%2F%3E%3CmxCell%20id%3D%222%22%20value%3D%22%26lt%3Bfont%20style%3D%26quot%3Bfont-size%3A%209px%26quot%3B%26gt%3Bdefine%20preAnimDurationTimefn%26lt%3B%2Ffont%26gt%3B%22%20style%3D%22rounded%3D1%3BwhiteSpace%3Dwrap%3Bhtml%3D1%3BfillColor%3D%23f8cecc%3BgradientColor%3D%23ea6b66%3BstrokeColor%3D%23b85450%3B%22%20vertex%3D%221%22%20parent%3D%221%22%3E%3CmxGeometry%20x%3D%2265%22%20y%3D%22270%22%20width%3D%22120%22%20height%3D%2260%22%20as%3D%22geometry%22%2F%3E%3C%2FmxCell%3E%3C%2Froot%3E%3C%2FmxGraphModel%3E&lt;/span&gt;&lt;span style=&quot;font-size: 0px&quot;&gt;&lt;font color=&quot;rgba(0, 0, 0, 0)&quot; face=&quot;monospace&quot;&gt;reSetTarget&lt;/font&gt;&lt;/span&gt;&lt;/div&gt;&lt;font color=&quot;#ba0000&quot; face=&quot;monospace&quot;&gt;&lt;span style=&quot;font-size: 0px&quot;&gt;reSetTarget&lt;/span&gt;&lt;span style=&quot;font-size: 0px&quot;&gt;reSetTargetreSetTargetreSetTargetreSetTarget&lt;/span&gt;&lt;/font&gt;" style="rounded=1;whiteSpace=wrap;html=1;fillColor=#f8cecc;gradientColor=#ea6b66;strokeColor=#b85450;" vertex="1" parent="1">
          <mxGeometry x="410" y="260" width="120" height="60" as="geometry" />
        </mxCell>
        <mxCell id="No7Bt8iQKIPhCdxpCU7Z-38" value="" style="edgeStyle=orthogonalEdgeStyle;rounded=0;orthogonalLoop=1;jettySize=auto;html=1;fontSize=12;" edge="1" parent="1" source="No7Bt8iQKIPhCdxpCU7Z-34" target="No7Bt8iQKIPhCdxpCU7Z-35">
          <mxGeometry relative="1" as="geometry" />
        </mxCell>
        <mxCell id="No7Bt8iQKIPhCdxpCU7Z-34" value="construct the animation req for truck mis" style="rounded=0;whiteSpace=wrap;html=1;fontSize=12;" vertex="1" parent="1">
          <mxGeometry x="407.5" y="360" width="125" height="60" as="geometry" />
        </mxCell>
        <mxCell id="No7Bt8iQKIPhCdxpCU7Z-40" style="edgeStyle=orthogonalEdgeStyle;rounded=0;orthogonalLoop=1;jettySize=auto;html=1;entryX=0.5;entryY=0;entryDx=0;entryDy=0;fontSize=12;" edge="1" parent="1" source="No7Bt8iQKIPhCdxpCU7Z-35" target="No7Bt8iQKIPhCdxpCU7Z-39">
          <mxGeometry relative="1" as="geometry" />
        </mxCell>
        <mxCell id="No7Bt8iQKIPhCdxpCU7Z-35" value="call&amp;nbsp;setAnimation" style="rounded=1;whiteSpace=wrap;html=1;fillColor=#f8cecc;gradientColor=#ea6b66;strokeColor=#b85450;" vertex="1" parent="1">
          <mxGeometry x="410" y="450" width="120" height="60" as="geometry" />
        </mxCell>
        <mxCell id="No7Bt8iQKIPhCdxpCU7Z-42" value="" style="edgeStyle=orthogonalEdgeStyle;rounded=0;orthogonalLoop=1;jettySize=auto;html=1;fontSize=12;" edge="1" parent="1" source="No7Bt8iQKIPhCdxpCU7Z-39" target="No7Bt8iQKIPhCdxpCU7Z-41">
          <mxGeometry relative="1" as="geometry" />
        </mxCell>
        <mxCell id="No7Bt8iQKIPhCdxpCU7Z-39" value="FOR all family person" style="rhombus;whiteSpace=wrap;html=1;fontSize=12;" vertex="1" parent="1">
          <mxGeometry x="580" y="50" width="80" height="80" as="geometry" />
        </mxCell>
        <mxCell id="No7Bt8iQKIPhCdxpCU7Z-44" value="" style="edgeStyle=orthogonalEdgeStyle;rounded=0;orthogonalLoop=1;jettySize=auto;html=1;fontSize=12;" edge="1" parent="1" source="No7Bt8iQKIPhCdxpCU7Z-41" target="No7Bt8iQKIPhCdxpCU7Z-43">
          <mxGeometry relative="1" as="geometry" />
        </mxCell>
        <mxCell id="No7Bt8iQKIPhCdxpCU7Z-41" value="set pop is now group mode and reset the queue related props" style="rounded=0;whiteSpace=wrap;html=1;fontSize=12;" vertex="1" parent="1">
          <mxGeometry x="560" y="170" width="120" height="60" as="geometry" />
        </mxCell>
        <mxCell id="No7Bt8iQKIPhCdxpCU7Z-46" value="" style="edgeStyle=orthogonalEdgeStyle;rounded=0;orthogonalLoop=1;jettySize=auto;html=1;fontSize=12;" edge="1" parent="1" source="No7Bt8iQKIPhCdxpCU7Z-43" target="No7Bt8iQKIPhCdxpCU7Z-45">
          <mxGeometry relative="1" as="geometry" />
        </mxCell>
        <mxCell id="No7Bt8iQKIPhCdxpCU7Z-43" value="set agent speed" style="rounded=1;whiteSpace=wrap;html=1;fillColor=#ffcc99;strokeColor=#36393d;" vertex="1" parent="1">
          <mxGeometry x="560" y="250" width="120" height="60" as="geometry" />
        </mxCell>
        <mxCell id="No7Bt8iQKIPhCdxpCU7Z-48" value="" style="edgeStyle=orthogonalEdgeStyle;rounded=0;orthogonalLoop=1;jettySize=auto;html=1;fontSize=12;" edge="1" parent="1" source="No7Bt8iQKIPhCdxpCU7Z-45" target="No7Bt8iQKIPhCdxpCU7Z-47">
          <mxGeometry relative="1" as="geometry" />
        </mxCell>
        <mxCell id="No7Bt8iQKIPhCdxpCU7Z-45" value="IF pop is wating for queue duration" style="rhombus;whiteSpace=wrap;html=1;fontSize=12;" vertex="1" parent="1">
          <mxGeometry x="580" y="340" width="80" height="80" as="geometry" />
        </mxCell>
        <mxCell id="No7Bt8iQKIPhCdxpCU7Z-47" value="clear the the animation duration" style="whiteSpace=wrap;html=1;" vertex="1" parent="1">
          <mxGeometry x="560" y="450" width="120" height="60" as="geometry" />
        </mxCell>
      </root>
    </mxGraphModel>
  </diagram>
</mxfile>
